<svg width="60" height="60" viewBox="0 0 60 60" fill="none" xmlns="http://www.w3.org/2000/svg">
<path fill-rule="evenodd" clip-rule="evenodd" d="M33 3C33 4.65685 31.6569 6 30 6C28.3431 6 27 4.65685 27 3C27 1.34315 28.3431 0 30 0C31.6569 0 33 1.34315 33 3ZM6 30C6 31.6569 4.65685 33 3 33C1.34315 33 0 31.6569 0 30C0 28.3431 1.34315 27 3 27C4.65685 27 6 28.3431 6 30ZM33 57C33 58.6569 31.6569 60 30 60C28.3431 60 27 58.6569 27 57C27 55.3431 28.3431 54 30 54C31.6569 54 33 55.3431 33 57ZM57 33C58.6569 33 60 31.6569 60 30C60 28.3431 58.6569 27 57 27C55.3431 27 54 28.3431 54 30C54 31.6569 55.3431 33 57 33ZM8.11724 46.0981C9.55212 45.2696 10.0437 43.4349 9.21532 42C8.38689 40.5651 6.55212 40.0735 5.11724 40.9019C3.68236 41.7303 3.19074 43.5651 4.01917 45C4.84759 46.4349 6.68236 46.9265 8.11724 46.0981ZM46.0981 51.8827C46.9265 53.3176 46.4349 55.1523 45 55.9808C43.5651 56.8092 41.7303 56.3176 40.9019 54.8827C40.0735 53.4478 40.5651 51.613 42 50.7846C43.4349 49.9562 45.2696 50.4478 46.0981 51.8827ZM54.8827 19.0981C56.3176 18.2696 56.8092 16.4349 55.9808 15C55.1524 13.5651 53.3176 13.0735 51.8827 13.9019C50.4479 14.7303 49.9562 16.5651 50.7847 18C51.6131 19.4349 53.4479 19.9265 54.8827 19.0981ZM19.0981 5.11731C19.9265 6.55219 19.4349 8.38696 18 9.21539C16.5651 10.0438 14.7303 9.55219 13.9019 8.11731C13.0735 6.68243 13.5651 4.84766 15 4.01923C16.4349 3.19081 18.2696 3.68243 19.0981 5.11731ZM19.0981 54.8827C19.9265 53.4478 19.4349 51.613 18 50.7846C16.5651 49.9562 14.7303 50.4478 13.9019 51.8827C13.0735 53.3175 13.5651 55.1523 15 55.9807C16.4349 56.8092 18.2696 56.3175 19.0981 54.8827ZM54.8827 40.9019C56.3176 41.7304 56.8092 43.5651 55.9808 45C55.1524 46.4349 53.3176 46.9265 51.8827 46.0981C50.4479 45.2697 49.9562 43.4349 50.7847 42C51.6131 40.5651 53.4479 40.0735 54.8827 40.9019ZM46.0981 8.11732C46.9265 6.68245 46.4349 4.84768 45 4.01925C43.5651 3.19082 41.7303 3.68245 40.9019 5.11732C40.0735 6.5522 40.5651 8.38697 42 9.2154C43.4349 10.0438 45.2696 9.5522 46.0981 8.11732ZM8.11724 13.9019C9.55212 14.7304 10.0437 16.5651 9.21532 18C8.38689 19.4349 6.55212 19.9265 5.11724 19.0981C3.68236 18.2697 3.19074 16.4349 4.01917 15C4.84759 13.5651 6.68236 13.0735 8.11724 13.9019Z" fill="white"/>
</svg>
